<svg xmlns="http://www.w3.org/2000/svg" viewBox="0 0 44 44"><path fill="currentColor" d="M22 0C9.869 0 0 9.869 0 22s9.869 22 22 22 22-9.869 22-22S34.131 0 22 0zm0 42C10.972 42 2 33.028 2 22S10.972 2 22 2s20 8.972 20 20-8.972 20-20 20z"/><path fill="currentColor" d="M33 24a1 1 0 0 0-1 1c0 5.514-4.486 10-10 10s-10-4.486-10-10a1 1 0 0 0-2 0c0 6.617 5.383 12 12 12s12-5.383 12-12a1 1 0 0 0-1-1zM13 14c1.654 0 3 1.346 3 3a1 1 0 0 0 2 0c0-2.757-2.243-5-5-5s-5 2.243-5 5a1 1 0 0 0 2 0c0-1.654 1.346-3 3-3zm18-2c-2.757 0-5 2.243-5 5a1 1 0 0 0 2 0c0-1.654 1.346-3 3-3s3 1.346 3 3a1 1 0 0 0 2 0c0-2.757-2.243-5-5-5z"/></svg>