<svg xmlns="http://www.w3.org/2000/svg" viewBox="0 0 498 498"><path fill="currentColor" d="M149 314c-5-1-9-3-12-6-4-3-6-7-6-11 0-5 2-9 5-12h1c3-3 7-4 12-4 4 0 8 1 12 4 1 2 3 4 4 6l1 3-9 4-2-3c0-1-1-2-1-2-2-2-3-2-5-2s-4 0-6 2c-1 1-1 2-1 4 0 1 0 2 1 3 2 2 5 3 7 4 5 2 10 4 15 8 4 4 6 9 6 15s-2 10-6 14c-5 4-10 6-16 6s-12-2-16-6c-4-3-6-6-7-11v-3l9-3 1 4c0 2 2 4 3 6 3 2 6 3 10 3 3 0 6-1 9-3 2-2 3-4 3-7 0-4-1-6-3-8-3-2-6-4-9-5zm47-22v54h-10v-54h-17v-10h44v10h-17zm58-10h10v45c0 6-3 10-7 14-5 4-11 6-17 6-7 0-13-2-18-6-5-5-7-10-7-16v-43h10v43c0 3 1 6 4 8 3 3 7 4 11 4 3 0 7-1 10-4 3-2 4-5 4-8v-43zm27 0c8 0 17 2 24 9 7 6 11 14 11 23 0 10-4 17-11 24-7 6-16 8-24 8h-11v-64h11zm58 39l-26-39h12l19 28 18-28h13l-26 39v25h-10v-25zm-58-29v44c6 0 12-2 17-6s8-9 8-16-3-12-8-16-11-6-17-6zm-64 90c1-5 4-11 9-15 6-7 13-10 22-10s17 3 23 10c6 6 10 14 10 23s-4 17-10 23c-6 7-14 10-23 10s-16-3-22-10c-7-6-10-14-10-23v-4c0 3-2 7-5 10-2 2-4 3-6 4l14 22h-12l-12-20h-6v20h-10v-64h19c5 0 9 3 13 6 4 5 6 10 6 16v2zm-51 27v-19h10v23l-1 1c-6 6-13 9-21 9-9 0-17-3-23-10-6-6-10-14-10-23s4-17 10-23c6-7 14-10 23-10 8 0 15 3 21 9l3 2-7 7-3-2c-4-4-9-6-14-6-7 0-12 2-16 7-5 4-7 10-7 16s2 12 7 16c4 5 9 7 16 7 4 0 9-1 12-4zm151-51h10v45c-1 5-3 10-6 13-5 5-10 7-16 7s-11-2-15-7c-4-4-6-9-6-15v-43h9v43c0 3 2 6 4 8 2 3 5 4 8 4 4 0 6-1 9-4 2-2 3-5 3-8v-43zm24 44v20h-10v-64h19c5 0 9 3 12 6 5 5 7 10 7 16s-2 11-7 16c-4 4-9 6-15 6h-6zm-152-34v24h6c4 0 6-1 9-3 2-3 3-6 3-9s-1-6-3-9c-3-2-5-3-9-3h-6zm59-1c-6 0-11 2-16 7-4 4-6 10-6 16s2 12 6 16c5 5 10 7 16 7 7 0 12-2 16-7 5-4 7-10 7-16s-2-12-7-16c-4-5-9-7-16-7zm93 1v24h6c3 0 6-1 9-3 2-3 3-6 3-9s-1-6-3-9c-3-2-6-3-9-3h-6zm-91-184c-10 10-20 19-30 28l-1 1-1-1c-4-1-7-4-10-6-1-1-2-3-3-3l-1 1c-6 5-13 10-19 15 4-1 7-2 10-3 3-2 6-4 8-7l2-1 1 1c3 3 6 5 9 7s7 4 10 5c1-1 3-2 5-4 2-1 4-3 7-6l1-1 1 1c3 3 6 5 9 8l2 2c1-2 3-4 4-6 3-4 6-9 10-13l1-2 1 1c4 3 7 6 11 9 2 3 5 5 7 7 1 0 1 0 1-1 1-1 2-2 4-3h2c3 2 6 3 9 5 3 1 5 2 9 3 1 0 1 1 2 1s3 1 5 1c-1-1-2-1-3-2-3-3-7-6-10-9-7-2-13-3-18-8-5-4-9-8-14-12-4-4-9-9-15-13-1 1-3 3-6 5zm-12 33c-1 2-3 3-5 5-2 1-4 3-6 5l-2 1-1-1-12-6c-2-2-5-4-7-6-3 2-5 4-7 6l-1 1c-4 0-7 1-10 2l-9 3-15 4 11-10c9-8 18-15 26-22 1 0 2-1 3-2l2-1 2 1c2 1 3 3 5 4 2 2 4 4 6 5 10-8 19-17 29-26 2-2 5-4 7-6l2-2 2 1c6 5 12 10 17 15 4 4 9 8 13 12s11 5 16 6h1l1 1c4 3 7 6 10 9 4 3 7 6 10 9l11 9-14-3c-3 0-5-1-8-2-2-1-4-1-6-2h-1c-4-2-7-3-10-4s-5-2-8-4c0 0 0 1-1 1 0 1-1 1-1 2l-2 5-4-4-9-9c-2-2-5-4-7-6-3 3-5 7-8 11-1 2-3 5-5 7l-2 3-3-2c-1-2-3-3-4-4l-6-6zm-5-29c-5 5-10 9-14 12l-1 2-2-2c-1-1-3-3-5-4l-6-6c-26 24-52 48-77 72l-2 1h246c-19-17-38-34-56-51l-6-6c-1-1-3-1-4-1-5-1-11-2-15-6-7-5-13-11-19-17-5-5-10-10-16-15-8 7-15 14-23 21zm-15 5c3-3 7-6 11-9 8-8 16-16 24-23l3-3 3 3c6 5 12 11 17 16 6 6 13 12 19 17 3 3 8 4 12 5h4l1 1h1c3 2 5 5 7 7 20 18 40 37 61 56l7 7H109l14-13c27-25 53-49 79-73l3-2 2 2c3 2 6 5 8 7 1 1 2 1 3 2zm-46-90c2 1 4 2 5 3 6 4 9 10 9 17s-3 13-9 17c-5 4-10 6-16 6h-22V82h17c5 0 9 1 13 3 3 3 5 6 5 11 0 2-1 5-2 7zm32-21v64h-11V82h11zm42 21c2 1 4 2 5 3 6 4 10 10 10 17s-4 13-10 17c-5 4-10 6-16 6h-22V82h17c5 0 9 1 13 3 3 3 6 6 6 11 0 2-2 5-3 7zm31 33h31v10h-42V82h11v54zm47-44v17h35v10h-35v17h35v10h-46V82h46v10h-35zm-174 18v26h8c5 0 8-1 12-4 3-2 5-5 5-9s-2-7-5-9c-4-3-9-4-14-4h-6zm0-18v8h7c2 0 4-1 5-2 1 0 2-1 2-2 0-2-1-2-2-3-2-1-4-1-6-1h-6zm74 18v26h8c5 0 9-1 12-4 3-2 5-5 5-9s-2-7-5-9c-4-3-9-4-14-4h-6zm0-18v8h7c2 0 4-1 5-2 1 0 2-1 2-2 0-2-1-2-2-3-2-1-4-1-6-1h-6zm25-92c69 0 131 28 176 73s73 107 73 176-28 131-73 176c-45 46-107 73-176 73s-131-27-176-73C28 380 0 318 0 249S28 118 73 73 180 0 249 0zm0 14c130 0 235 105 235 235S379 484 249 484 14 379 14 249 119 14 249 14z" fill-rule="evenodd"/></svg>