<svg xmlns="http://www.w3.org/2000/svg" viewBox="0 0 512 512"><path fill="currentColor" d="M324.396 341.35h-.025a8.533 8.533 0 1 0 .009 17.067h.017a8.542 8.542 0 0 1 8.533 8.525 8.535 8.535 0 0 0 8.533 8.525h.009a8.534 8.534 0 0 0 8.525-8.542c-.03-14.123-11.479-25.559-25.601-25.575zm-102.521 34.134l17.067-.017a8.533 8.533 0 1 0-.009-17.067h-.009l-17.067.017a8.533 8.533 0 1 0 .009 17.067h.009zm3.354-35.451l16.042 5.821a8.535 8.535 0 0 0 11.344-9.508 8.533 8.533 0 0 0-5.519-6.533l-16.042-5.821a8.533 8.533 0 0 0-5.825 16.041zm24.485 49.63a8.533 8.533 0 0 0-8.405-1.475l-16.033 5.85a8.534 8.534 0 0 0 5.85 16.033l16.033-5.85a8.534 8.534 0 0 0 2.555-14.558zm176.953-31.28h-.009l-17.067.017a8.533 8.533 0 0 0 .008 17.066h.008l17.067-.017c4.713-.002 8.531-3.825 8.529-8.538s-3.823-8.53-8.536-8.528zm-22.109-12.154a8.583 8.583 0 0 0 2.925-.521l16.029-5.85a8.534 8.534 0 0 0-5.85-16.033l-16.029 5.85a8.536 8.536 0 0 0 2.925 16.554zm19.005 47.638l-16.042-5.825a8.533 8.533 0 0 0-5.825 16.042l16.042 5.825a8.534 8.534 0 0 0 5.825-16.042zM176.351 34.196c-31.847 1.523-56.885 27.787-56.885 59.67a8.533 8.533 0 0 0 17.066 0 42.537 42.537 0 0 1 15.771-33.125 43.13 43.13 0 0 1 36.171-8.571 42.371 42.371 0 0 1 32.421 32.421 42.747 42.747 0 0 1-35.575 51.508c-8.375 1.216-14.604 8.371-14.654 16.833v9.2c0 4.713 3.82 8.533 8.533 8.533s8.533-3.82 8.533-8.533l.004-9.142c31.556-4.554 53.975-33.087 50.933-64.825-3.041-31.736-30.471-55.492-62.318-53.969zm8.908 156.012a9.86 9.86 0 0 0-2.817-1.796 8.57 8.57 0 0 0-6.487 0 8.771 8.771 0 0 0-2.813 1.796 9.841 9.841 0 0 0-1.796 2.813 8.524 8.524 0 0 0-.679 3.246c.013.572.071 1.141.171 1.704.091.535.263 1.053.508 1.537a6.48 6.48 0 0 0 .771 1.538c.341.425.683.85 1.025 1.279a8.98 8.98 0 0 0 6.058 2.475 7.161 7.161 0 0 0 3.242-.683 9.933 9.933 0 0 0 2.817-1.792c.341-.429.683-.854 1.021-1.279.324-.476.583-.993.771-1.538a5.576 5.576 0 0 0 .513-1.537c.098-.563.155-1.133.171-1.704a8.528 8.528 0 0 0-.683-3.246 9.983 9.983 0 0 0-1.793-2.813z"/><path fill="currentColor" d="M375.467 204.8V34.133C375.445 15.291 360.176.022 341.333 0h-307.2C15.291.022.022 15.291 0 34.133V204.8c.022 18.842 15.291 34.112 34.133 34.133h8.533v51.183a17.06 17.06 0 0 0 29.133 12.067c.205-.201.397-.413.575-.638l51.137-62.612h217.821c18.844-.021 34.113-15.291 34.135-34.133zm-256 17.067c-.144 0-.263.075-.405.082a17.87 17.87 0 0 0-3.224.796 8.4 8.4 0 0 0-1.258.848 8.406 8.406 0 0 0-1.398 1.146c-.096.107-.23.152-.323.265l-53.125 65.042V230.4a8.533 8.533 0 0 0-8.533-8.533H34.133c-9.422-.009-17.057-7.645-17.067-17.067V34.133c.009-9.422 7.645-17.057 17.067-17.067h307.2c9.422.009 17.057 7.645 17.067 17.067V204.8c-.009 9.422-7.645 17.057-17.067 17.067H119.467z"/><path fill="currentColor" d="M477.867 273.067h-8.533v-51.183a17.067 17.067 0 0 0-29.134-12.067 6.814 6.814 0 0 0-.575.638l-51.137 62.612H170.667c-18.842.022-34.112 15.291-34.133 34.133v170.667c.022 18.842 15.291 34.112 34.133 34.133h307.2c18.842-.022 34.112-15.291 34.133-34.133V307.2c-.022-18.842-15.291-34.112-34.133-34.133zm17.066 204.8c-.009 9.422-7.645 17.057-17.067 17.067h-307.2c-9.422-.009-17.057-7.645-17.067-17.067V307.2c.009-9.422 7.645-17.057 17.067-17.067h221.867a8.43 8.43 0 0 0 3.459-.764c.253-.153.499-.318.735-.496a8.436 8.436 0 0 0 2.11-1.642c.089-.099.219-.132.304-.236l53.125-65.042V281.6a8.533 8.533 0 0 0 8.533 8.533h17.067c9.422.009 17.057 7.645 17.067 17.067v170.667z"/><path fill="currentColor" d="M331.45 307.625c-26.493-3.22-51.906 11.531-62.25 36.133-10.344 24.602-3.106 53.081 17.729 69.759a8.398 8.398 0 0 1 3.204 6.575v6.575a17.01 17.01 0 0 0 8.523 14.688l.01 10.921a25.683 25.683 0 0 0 10.654 20.737 25.377 25.377 0 0 0 14.929 4.842 26.683 26.683 0 0 0 8.4-1.371 25.96 25.96 0 0 0 17.229-25.092l-.008-10.034a17.008 17.008 0 0 0 8.529-14.691v-6.55a8.773 8.773 0 0 1 3.421-6.775 59.345 59.345 0 0 0 21.425-55.996c-4.456-26.158-25.477-46.336-51.795-49.721zm-4.163 152.658a8.665 8.665 0 0 1-7.975-1.108 8.565 8.565 0 0 1-3.579-6.917l-.009-8.525h17.084l.004 7.675a9.217 9.217 0 0 1-5.525 8.875zm23.813-60.22a25.754 25.754 0 0 0-9.767 20.054v6.521h-.009l-34.125.029v-6.575a25.381 25.381 0 0 0-9.612-19.904c-14.106-11.323-19.536-30.312-13.55-47.381 5.986-17.069 22.087-28.507 40.175-28.54 1.753 0 3.505.102 5.246.308 18.758 2.405 33.744 16.78 36.929 35.421a42.464 42.464 0 0 1-15.287 40.067z"/></svg>