<svg xmlns="http://www.w3.org/2000/svg" viewBox="0 0 512 512"><path fill="currentColor" d="M456.828 441.379H348.929c27.389-10.951 48.357-26.522 64.359-45.36 65.428-9.791 94.74-63.816 94.74-113.537 0-35.246-19.627-64.674-45.028-69.82l.007-.8c0-4.414-1.766-8.828-5.297-12.359-2.648-3.531-7.945-5.297-12.359-5.297H39.283c-4.414 0-8.828 1.766-12.359 5.297-3.531 3.531-5.297 7.945-5.297 12.359.684 94.343 17.253 190.802 114.078 229.517H26.924c-12.359 0-22.952 10.593-22.952 22.952 0 10.593 7.062 18.538 20.303 21.186l111.228 8.828c4.414 0 5.297 1.766 6.179 3.531 4.414 8.828 13.241 14.124 22.952 14.124h146.538c9.71 0 18.538-5.297 21.186-14.124.883-1.766 2.648-3.531 6.179-3.531l120.938-8.828h.883c12.359-2.648 19.421-10.593 19.421-21.186 0-12.359-9.71-22.952-22.951-22.952zm32.662-158.896c0 34.428-15.89 75.917-60.028 90.924 26.483-43.255 31.779-96.221 33.545-142.124 15.007 5.296 26.483 26.483 26.483 51.2zm-141.242-22.952l26.483 26.483v58.262h-52.966v-58.262l26.483-26.483zM39.283 211.862H339.42v31.779l-32.662 32.662c-1.766 1.766-2.648 3.531-2.648 6.179v70.621c0 5.297 3.531 8.828 8.828 8.828h70.621c5.297 0 8.828-3.531 8.828-8.828v-70.621c0-2.648-.883-4.414-2.648-6.179l-32.662-32.662v-31.779h88.276c-.883 119.172-26.483 229.517-203.034 229.517S40.166 331.034 39.283 211.862zm420.193 256l-120.055 8.828c-8.828.883-16.772 5.297-20.303 13.241-1.766 2.648-4.414 4.414-7.062 4.414H164.634c-2.648 0-5.297-1.766-7.062-4.414-3.531-7.945-11.476-12.359-20.303-13.241l-111.228-8.828c-4.414-.883-4.414-2.648-4.414-3.531 0-2.648 2.648-5.297 5.297-5.297h431.669c2.648 0 5.297 2.648 5.297 5.297 0 .883 0 2.648-4.414 3.531zM227.31 73.269c-13.241 13.241-20.303 26.483-20.303 40.607s7.062 28.248 20.303 42.372c1.766 1.766 3.531 2.648 6.179 2.648 1.766 0 4.414-.883 6.179-2.648 3.531-3.531 3.531-8.828 0-12.359-9.71-10.593-15.007-20.303-15.007-30.014s5.297-19.421 15.007-28.248c13.241-12.359 20.303-26.483 20.303-40.607 0-15.007-7.062-29.131-20.303-42.372-3.531-3.531-8.828-3.531-12.359 0-3.531 3.531-3.531 8.828 0 12.359 9.71 10.593 15.007 20.303 15.007 30.014s-5.295 19.42-15.006 28.248zm105.931 0C320 86.51 312.938 99.752 312.938 113.876s7.062 28.248 20.303 42.372c1.766 1.766 3.531 2.648 6.179 2.648 1.766 0 4.414-.883 6.179-2.648 3.531-3.531 3.531-8.828 0-12.359-9.71-10.593-15.007-20.303-15.007-30.014s5.297-19.421 15.007-28.248c13.241-12.359 20.303-26.483 20.303-40.607 0-15.007-7.062-29.131-20.303-42.372-3.531-3.531-8.828-3.531-12.359 0-3.531 3.531-3.531 8.828 0 12.359 9.71 10.593 15.007 20.303 15.007 30.014s-5.295 19.42-15.006 28.248zm-194.207 0c-13.241 13.241-20.303 26.483-20.303 40.607s7.062 28.248 20.303 42.372c1.766 1.766 3.531 2.648 6.179 2.648 1.766 0 4.414-.883 6.179-2.648 3.531-3.531 3.531-8.828 0-12.359-9.71-10.593-15.007-20.303-15.007-30.014s5.297-19.421 15.007-28.248c13.241-12.359 20.303-26.483 20.303-40.607 0-15.007-7.062-29.131-20.303-42.372-3.531-3.531-8.828-3.531-12.359 0-3.531 3.531-3.531 8.828 0 12.359 9.71 10.593 15.007 20.303 15.007 30.014s-5.295 19.42-15.006 28.248z"/><path fill="currentColor" d="M191.117 397.241c-62.676-10.593-94.455-45.903-107.697-116.524-.883-4.414-6.179-7.945-10.593-7.062s-7.945 6.179-7.062 10.593c14.124 78.565 52.083 118.29 121.821 130.648h1.766c4.414 0 7.945-2.648 8.828-7.062.882-5.296-2.649-9.71-7.063-10.593z"/></svg>