<svg xmlns="http://www.w3.org/2000/svg" viewBox="0 0 512 512"><path fill="currentColor" d="M119.465 102.398c28.277 0 51.203-22.921 51.203-51.199C170.668 22.922 147.742 0 119.465 0c-28.274 0-51.2 22.922-51.2 51.2.028 28.265 22.938 51.171 51.2 51.198zm0-85.332c18.851 0 34.137 15.282 34.137 34.133 0 18.852-15.286 34.133-34.137 34.133-18.848 0-34.133-15.281-34.133-34.133 0-18.851 15.285-34.133 34.133-34.133zM153.602 512c14.136 0 25.597-11.46 25.597-25.602v-192c0-7.066-5.73-12.796-12.8-12.796H72.534c-7.07 0-12.8 5.73-12.8 12.796v192c0 14.141 11.46 25.602 25.597 25.602 14.14 0 25.602-11.46 25.602-25.602V342.29a9.232 9.232 0 0 1 7.738-9.488 8.616 8.616 0 0 1 6.523 2.234 8.624 8.624 0 0 1 2.805 6.297v145.066C128 500.54 139.46 512 153.602 512zm-34.137-196.266c-.73 0-1.465 0-2.207.094-13.45 1.485-23.57 12.934-23.39 26.461V486.4a8.534 8.534 0 1 1-17.067 0V298.667h85.332v187.73a8.533 8.533 0 1 1-17.067 0V341.332a24.957 24.957 0 0 0-7.449-17.988 25.284 25.284 0 0 0-18.152-7.61zm273.07-213.336c28.274 0 51.2-22.921 51.2-51.199 0-28.277-22.926-51.199-51.2-51.199-28.277 0-51.203 22.922-51.203 51.2.031 28.265 22.938 51.171 51.203 51.198zm0-85.332c18.848 0 34.133 15.282 34.133 34.133 0 18.852-15.285 34.133-34.133 34.133-18.851 0-34.137-15.281-34.137-34.133 0-18.851 15.286-34.133 34.137-34.133zm0 0"/><path fill="currentColor" d="M452.266 110.934h-23.38a25.674 25.674 0 0 0-21.898 12.39l-13.343 22.239-13.254-22.067a21.067 21.067 0 0 0-1.989-2.867c-.187-.23-.382-.473-.605-.703a17.969 17.969 0 0 0-1.348-1.485 28.906 28.906 0 0 0-2.742-2.379 7.965 7.965 0 0 0-.555-.425 15.618 15.618 0 0 0-3.59-2.082 21.349 21.349 0 0 0-4.078-1.57 16.69 16.69 0 0 0-4.02-.856 20.627 20.627 0 0 0-3.066-.195h-42.171l-36.332-94.575c-.094-.222-.239-.418-.336-.64 0-.086 0-.172-.051-.258-.238-.563-.528-1.133-1.004-2.055a8.02 8.02 0 0 0-.691-1.136c-.208-.34-.41-.665-.633-.989-.223-.324-.446-.683-.77-1.16l-.722-.937c-.239-.301-.489-.59-.754-.856l-1.621-1.621c-.176-.187-.731-.648-.922-.852a14.845 14.845 0 0 0-1.63-1.203 25.908 25.908 0 0 0-1.8-1.086 13.09 13.09 0 0 0-2.723-1.398l-.281-.164c-.832-.41-1.71-.719-2.617-.91a12.96 12.96 0 0 0-3.024-.692 23.234 23.234 0 0 0-2.5-.238c-.41 0-.851-.113-1.226-.121a20.492 20.492 0 0 0-4.121.254c-.64.086-1.266.242-1.906.379-.637.136-1.133.203-1.622.34a5.88 5.88 0 0 0-.62.222c-.165.043-.258.094-.41.145-.376.117-.77.16-1.145.308-.375.145-.563.305-.852.434-.7.262-1.375.582-2.023.957a8.324 8.324 0 0 0-1.188.68c-.297.18-.594.36-.851.554-.254.2-.391.243-.582.368a8.1 8.1 0 0 0-.73.53l-.915.692c-.309.239-.98.852-1.254 1.153l-1.289 1.285c-.152.156-.598.683-.742.855-.414.48-.793.988-1.137 1.52a32.37 32.37 0 0 0-1.16 1.867 13.5 13.5 0 0 0-1.29 2.484l-.144.29a9.814 9.814 0 0 0-.496 1.042l-36.34 94.532h-42.171c-.813-.02-1.625.02-2.434.109a19.699 19.699 0 0 0-4.652.93c-1.176.308-2.32.738-3.41 1.28a18.414 18.414 0 0 0-4.27 2.372c-.184.133-.363.27-.535.418a27.69 27.69 0 0 0-2.774 2.418c-.488.469-.941.965-1.367 1.492-.187.203-.36.402-.52.606a15.252 15.252 0 0 0-1.648 2.312c-.289.418-.554.852-.8 1.297L118.39 145.5l-13.328-22.184a25.738 25.738 0 0 0-21.981-12.382H59.734C26.758 110.973.04 137.69 0 170.668v111.957c0 14.137 11.46 25.598 25.602 25.598 1.425 0 2.855-.118 4.265-.348 12.516-2.469 21.488-13.52 21.332-26.273v-98.137a4.266 4.266 0 0 1 4.266-4.266c2.36 0 4.27 1.91 4.27 4.266v68.27c0 7.066 5.73 12.8 12.8 12.8h89.598c9.426 0 17.066-7.644 17.066-17.07v-68.266c0-9.426 7.64-17.066 17.067-17.066h17.066a25.514 25.514 0 0 0 23.895-16.39L256 97l18.773 48.773a25.495 25.495 0 0 0 23.895 16.36h17.066c9.426 0 17.067 7.64 17.067 17.066v68.266c0 9.426 7.64 17.07 17.066 17.07h89.598c7.07 0 12.8-5.734 12.8-12.8v-68.27a4.267 4.267 0 0 1 4.27-4.266 4.266 4.266 0 0 1 4.266 4.266v98.137c-.164 12.761 8.808 23.82 21.332 26.289 1.41.23 2.84.347 4.265.351 14.141 0 25.602-11.46 25.602-25.601V170.668c-.04-32.977-26.758-59.695-59.734-59.734zm-230.93 28.644a8.528 8.528 0 0 1-8.004 5.488h-17.066c-18.852 0-34.133 15.282-34.133 34.133v68.266H76.8v-64c0-11.781-9.551-21.332-21.336-21.332-11.781 0-21.332 9.55-21.332 21.332v98.137a9.39 9.39 0 0 1-7.047 9.386 8.528 8.528 0 0 1-6.953-1.855 8.517 8.517 0 0 1-3.067-6.508V170.668c.028-23.555 19.114-42.64 42.668-42.668h23.348c2.992 0 5.77 1.57 7.313 4.137l20.648 34.39a8.536 8.536 0 0 0 14.637 0l19.949-33.28.402-.688c.145-.2.606-.856.735-1.086.308-.293.593-.61.851-.946.32-.304.656-.59 1.008-.855a14.32 14.32 0 0 0 1.484-.852 4.26 4.26 0 0 1 .965-.375c.29-.078 1.297-.28 1.578-.386.282-.102.743-.059.95-.059h48.043a8.536 8.536 0 0 0 7.96-5.477l28.083-73.132 9.164 23.832zm273.598 143.047a8.544 8.544 0 0 1-3.051 6.531 8.525 8.525 0 0 1-6.969 1.864 9.382 9.382 0 0 1-7.047-9.418v-98.137c0-11.781-9.55-21.332-21.332-21.332-11.785 0-21.336 9.55-21.336 21.332v64h-85.332v-68.266c0-18.851-15.281-34.133-34.133-34.133h-17.066a8.531 8.531 0 0 1-7.996-5.453L248.004 28.68a8.663 8.663 0 0 1 .164-6.434c.047-.094.09-.191.125-.289a8.88 8.88 0 0 1 1.59-2.297l.62-.535a8.17 8.17 0 0 1 2.048-1.324l.3-.121c.211-.047.419-.11.622-.188a8.998 8.998 0 0 1 2.136-.34 5.725 5.725 0 0 1 1.098 0 8.69 8.69 0 0 1 2.512.57c.136.071.277.13.426.18a8.81 8.81 0 0 1 2.304 1.606l.434.484a8.487 8.487 0 0 1 1.605 2.492l38.399 100.012a8.533 8.533 0 0 0 7.968 5.504h48.395c.203 0 1.137.18 1.348.195.214.02.57.188.855.266.332.086.656.21.961.375.215.101.762.375.984.469.22.093.29.23.442.332.367.285.742.61 1.05.855.192.266.403.516.622.758.23.316.48.633.574.742l.598 1 20.128 33.543a8.536 8.536 0 0 0 7.317 4.145c3 0 5.777-1.575 7.316-4.145l20.668-34.422a8.546 8.546 0 0 1 7.274-4.113h23.379c23.554.027 42.64 19.113 42.668 42.668zm0 0"/><path fill="currentColor" d="M426.668 512c14.137 0 25.598-11.46 25.598-25.602v-192c0-7.066-5.73-12.796-12.801-12.796h-93.863c-7.07 0-12.801 5.73-12.801 12.796v192c0 14.141 11.46 25.602 25.597 25.602C372.54 512 384 500.54 384 486.398V341.332c-.004-2.3.945-4.5 2.621-6.074a8.027 8.027 0 0 1 6.7-2.457 9.23 9.23 0 0 1 7.745 9.488V486.4c0 14.14 11.461 25.601 25.602 25.601zm-31.906-196.172c-.742-.094-1.477-.094-2.227-.094-14.105.079-25.523 11.493-25.601 25.598v145.066a8.534 8.534 0 1 1-17.067 0v-187.73H435.2v187.73a8.533 8.533 0 1 1-17.066 0V342.29c.18-13.52-9.934-24.969-23.371-26.46zm0 0"/></svg>