<svg xmlns="http://www.w3.org/2000/svg" viewBox="51 51 410 410"><path fill="currentColor" d="M485.517 70.677h-15.89c-69.714-23.528-145.443-23.813-213.613-.04-67.409-23.773-146.543-23.488-213.642.04H0v388.414h512V70.677h-26.483zM228.235 414.952H47.669c52.128-22.904 112.743-22.47 180.566 0zm236.096-.882l1.766.883H282.483c71.503-22.952 132.414-23.835 181.848-.883zm0-326.621l1.766.883h1.766v307.2c-55.614-23.834-123.586-22.069-203.034 6.179V85.683c64.44-20.303 135.943-20.303 199.502 1.766zm-417.545 0c62.676-22.069 136.828-22.952 200.386-1.766v316.028a579.418 579.418 0 0 0-9.22-3.045c-70.021-23.909-133.516-25.794-188.58-4.362a209.538 209.538 0 0 0-5.235 2.11V88.332h1.766l.883-.883zm-29.131.883h8.828v326.621h-8.828V88.332zm476.69 353.103H17.655v-8.828h476.69v8.828zm-8.828-26.483V88.332h8.828v326.621h-8.828z"/><path fill="currentColor" d="M123.586 150.125h79.448c5.297 0 8.828-3.531 8.828-8.828 0-5.297-3.531-8.828-8.828-8.828h-79.448c-5.297 0-8.828 3.531-8.828 8.828.001 5.297 3.532 8.828 8.828 8.828zm-35.31 44.138h114.759c5.297 0 8.828-3.531 8.828-8.828 0-5.297-3.531-8.828-8.828-8.828H88.276c-5.297 0-8.828 3.531-8.828 8.828 0 5.297 3.531 8.828 8.828 8.828zm0 44.138h79.448c5.297 0 8.828-3.531 8.828-8.828 0-5.297-3.531-8.828-8.828-8.828H88.276c-5.297 0-8.828 3.531-8.828 8.828 0 5.297 3.531 8.828 8.828 8.828zm114.758 26.483h-79.448c-5.297 0-8.828 3.531-8.828 8.828 0 5.297 3.531 8.828 8.828 8.828h79.448c5.297 0 8.828-3.531 8.828-8.828 0-5.297-3.531-8.828-8.828-8.828zM88.276 326.677h114.759c5.297 0 8.828-3.531 8.828-8.828s-3.531-8.828-8.828-8.828H88.276c-5.297 0-8.828 3.531-8.828 8.828s3.531 8.828 8.828 8.828zm220.69-132.414h79.448c5.297 0 8.828-3.531 8.828-8.828 0-5.297-3.531-8.828-8.828-8.828h-79.448c-5.297 0-8.828 3.531-8.828 8.828 0 5.297 3.531 8.828 8.828 8.828zm0-44.138h123.586c5.297 0 8.828-3.531 8.828-8.828 0-5.297-3.531-8.828-8.828-8.828H308.966c-5.297 0-8.828 3.531-8.828 8.828 0 5.297 3.531 8.828 8.828 8.828zm123.586 158.896h-88.276c-5.297 0-8.828 3.531-8.828 8.828s3.531 8.828 8.828 8.828h88.276c5.297 0 8.828-3.531 8.828-8.828s-3.532-8.828-8.828-8.828zm-123.586-26.482h79.448c5.297 0 8.828-3.531 8.828-8.828 0-5.297-3.531-8.828-8.828-8.828h-79.448c-5.297 0-8.828 3.531-8.828 8.828 0 5.297 3.531 8.828 8.828 8.828zm0-44.138h123.586c5.297 0 8.828-3.531 8.828-8.828 0-5.297-3.531-8.828-8.828-8.828H308.966c-5.297 0-8.828 3.531-8.828 8.828 0 5.297 3.531 8.828 8.828 8.828z"/></svg>