<svg xmlns="http://www.w3.org/2000/svg"><symbol id="icon-arrow-btn" viewBox="130 130 280 252"><path fill="currentColor" d="M506.134 241.843l-.018-.019-104.504-104c-7.829-7.791-20.492-7.762-28.285.068-7.792 7.829-7.762 20.492.067 28.284L443.558 236H20c-11.046 0-20 8.954-20 20s8.954 20 20 20h423.557l-70.162 69.824c-7.829 7.792-7.859 20.455-.067 28.284 7.793 7.831 20.457 7.858 28.285.068l104.504-104 .018-.019c7.833-7.818 7.808-20.522-.001-28.314z"/></symbol><symbol id="icon-calendar" viewBox="-27 -17 532 532.001"><path fill="currentColor" d="M477.344 184.766v-76.934c-.035-30.25-24.551-54.766-54.801-54.8h-14.43v-8.653C407.988 19.829 388.051 0 363.503 0s-44.48 19.828-44.612 44.379v8.652H157.719V44.38C157.594 19.829 137.656 0 113.109 0S68.63 19.828 68.496 44.379v8.652H54.063C23.816 53.066-.7 77.582-.734 107.832v336.117c.035 30.25 24.55 54.766 54.797 54.801h368.48c30.25-.035 54.766-24.55 54.8-54.8V192.675a12.35 12.35 0 0 0 0-7.91zM363.504 24.715c10.851.015 19.644 8.805 19.656 19.664v26.273c-.082 10.793-8.863 19.5-19.664 19.5-10.797 0-19.574-8.707-19.66-19.5V44.38c.012-10.86 8.809-19.652 19.668-19.664zM93.44 44.379c.086-10.8 8.864-19.508 19.66-19.508 10.801 0 19.575 8.707 19.665 19.508v26.273c-.09 10.793-8.864 19.5-19.664 19.5-10.797 0-19.575-8.707-19.66-19.5zM54.063 77.98h15.042c3.586 21.508 22.192 37.274 43.997 37.274 21.808 0 40.414-15.766 44-37.274h162.402c3.586 21.508 22.195 37.274 44 37.274S403.918 99.488 407.5 77.98h15.043c16.48.02 29.832 13.372 29.852 29.852v68.41H24.215v-68.406C24.23 91.356 37.59 78 54.062 77.98zm368.48 395.82H54.063c-16.473-.019-29.829-13.37-29.848-29.85V201.19h428.18V443.95c-.02 16.48-13.372 29.832-29.852 29.852zm0 0"/><path fill="currentColor" d="M300.367 280.152l-81.898 79.965-41.578-40.597c-4.899-4.786-12.735-4.73-17.563.12-4.828 4.856-4.844 12.692-.039 17.563l.172.164 50.297 49.113c4.844 4.73 12.582 4.73 17.426 0l90.617-88.468c4.887-4.805 4.984-12.657.219-17.582-4.774-4.922-12.622-5.07-17.582-.34l-.07.066zm0 0"/></symbol><symbol id="icon-clock" viewBox="0 0 30 30"><path fill="currentColor" d="M15 4a1 1 0 0 0-1 1v9H9a1 1 0 1 0 0 2h6a1 1 0 0 0 1-1V5a1 1 0 0 0-1-1zm0-4C6.716 0 0 6.716 0 15s6.716 15 15 15 15-6.716 15-15S23.284 0 15 0zm0 28C7.82 28 2 22.18 2 15S7.82 2 15 2s13 5.82 13 13-5.82 13-13 13z"/></symbol><symbol id="icon-logo" viewBox="0 0 498 498"><path fill="currentColor" d="M149 314c-5-1-9-3-12-6-4-3-6-7-6-11 0-5 2-9 5-12h1c3-3 7-4 12-4 4 0 8 1 12 4 1 2 3 4 4 6l1 3-9 4-2-3c0-1-1-2-1-2-2-2-3-2-5-2s-4 0-6 2c-1 1-1 2-1 4 0 1 0 2 1 3 2 2 5 3 7 4 5 2 10 4 15 8 4 4 6 9 6 15s-2 10-6 14c-5 4-10 6-16 6s-12-2-16-6c-4-3-6-6-7-11v-3l9-3 1 4c0 2 2 4 3 6 3 2 6 3 10 3 3 0 6-1 9-3 2-2 3-4 3-7 0-4-1-6-3-8-3-2-6-4-9-5zm47-22v54h-10v-54h-17v-10h44v10h-17zm58-10h10v45c0 6-3 10-7 14-5 4-11 6-17 6-7 0-13-2-18-6-5-5-7-10-7-16v-43h10v43c0 3 1 6 4 8 3 3 7 4 11 4 3 0 7-1 10-4 3-2 4-5 4-8v-43zm27 0c8 0 17 2 24 9 7 6 11 14 11 23 0 10-4 17-11 24-7 6-16 8-24 8h-11v-64h11zm58 39l-26-39h12l19 28 18-28h13l-26 39v25h-10v-25zm-58-29v44c6 0 12-2 17-6s8-9 8-16-3-12-8-16-11-6-17-6zm-64 90c1-5 4-11 9-15 6-7 13-10 22-10s17 3 23 10c6 6 10 14 10 23s-4 17-10 23c-6 7-14 10-23 10s-16-3-22-10c-7-6-10-14-10-23v-4c0 3-2 7-5 10-2 2-4 3-6 4l14 22h-12l-12-20h-6v20h-10v-64h19c5 0 9 3 13 6 4 5 6 10 6 16v2zm-51 27v-19h10v23l-1 1c-6 6-13 9-21 9-9 0-17-3-23-10-6-6-10-14-10-23s4-17 10-23c6-7 14-10 23-10 8 0 15 3 21 9l3 2-7 7-3-2c-4-4-9-6-14-6-7 0-12 2-16 7-5 4-7 10-7 16s2 12 7 16c4 5 9 7 16 7 4 0 9-1 12-4zm151-51h10v45c-1 5-3 10-6 13-5 5-10 7-16 7s-11-2-15-7c-4-4-6-9-6-15v-43h9v43c0 3 2 6 4 8 2 3 5 4 8 4 4 0 6-1 9-4 2-2 3-5 3-8v-43zm24 44v20h-10v-64h19c5 0 9 3 12 6 5 5 7 10 7 16s-2 11-7 16c-4 4-9 6-15 6h-6zm-152-34v24h6c4 0 6-1 9-3 2-3 3-6 3-9s-1-6-3-9c-3-2-5-3-9-3h-6zm59-1c-6 0-11 2-16 7-4 4-6 10-6 16s2 12 6 16c5 5 10 7 16 7 7 0 12-2 16-7 5-4 7-10 7-16s-2-12-7-16c-4-5-9-7-16-7zm93 1v24h6c3 0 6-1 9-3 2-3 3-6 3-9s-1-6-3-9c-3-2-6-3-9-3h-6zm-91-184c-10 10-20 19-30 28l-1 1-1-1c-4-1-7-4-10-6-1-1-2-3-3-3l-1 1c-6 5-13 10-19 15 4-1 7-2 10-3 3-2 6-4 8-7l2-1 1 1c3 3 6 5 9 7s7 4 10 5c1-1 3-2 5-4 2-1 4-3 7-6l1-1 1 1c3 3 6 5 9 8l2 2c1-2 3-4 4-6 3-4 6-9 10-13l1-2 1 1c4 3 7 6 11 9 2 3 5 5 7 7 1 0 1 0 1-1 1-1 2-2 4-3h2c3 2 6 3 9 5 3 1 5 2 9 3 1 0 1 1 2 1s3 1 5 1c-1-1-2-1-3-2-3-3-7-6-10-9-7-2-13-3-18-8-5-4-9-8-14-12-4-4-9-9-15-13-1 1-3 3-6 5zm-12 33c-1 2-3 3-5 5-2 1-4 3-6 5l-2 1-1-1-12-6c-2-2-5-4-7-6-3 2-5 4-7 6l-1 1c-4 0-7 1-10 2l-9 3-15 4 11-10c9-8 18-15 26-22 1 0 2-1 3-2l2-1 2 1c2 1 3 3 5 4 2 2 4 4 6 5 10-8 19-17 29-26 2-2 5-4 7-6l2-2 2 1c6 5 12 10 17 15 4 4 9 8 13 12s11 5 16 6h1l1 1c4 3 7 6 10 9 4 3 7 6 10 9l11 9-14-3c-3 0-5-1-8-2-2-1-4-1-6-2h-1c-4-2-7-3-10-4s-5-2-8-4c0 0 0 1-1 1 0 1-1 1-1 2l-2 5-4-4-9-9c-2-2-5-4-7-6-3 3-5 7-8 11-1 2-3 5-5 7l-2 3-3-2c-1-2-3-3-4-4l-6-6zm-5-29c-5 5-10 9-14 12l-1 2-2-2c-1-1-3-3-5-4l-6-6c-26 24-52 48-77 72l-2 1h246c-19-17-38-34-56-51l-6-6c-1-1-3-1-4-1-5-1-11-2-15-6-7-5-13-11-19-17-5-5-10-10-16-15-8 7-15 14-23 21zm-15 5c3-3 7-6 11-9 8-8 16-16 24-23l3-3 3 3c6 5 12 11 17 16 6 6 13 12 19 17 3 3 8 4 12 5h4l1 1h1c3 2 5 5 7 7 20 18 40 37 61 56l7 7H109l14-13c27-25 53-49 79-73l3-2 2 2c3 2 6 5 8 7 1 1 2 1 3 2zm-46-90c2 1 4 2 5 3 6 4 9 10 9 17s-3 13-9 17c-5 4-10 6-16 6h-22V82h17c5 0 9 1 13 3 3 3 5 6 5 11 0 2-1 5-2 7zm32-21v64h-11V82h11zm42 21c2 1 4 2 5 3 6 4 10 10 10 17s-4 13-10 17c-5 4-10 6-16 6h-22V82h17c5 0 9 1 13 3 3 3 6 6 6 11 0 2-2 5-3 7zm31 33h31v10h-42V82h11v54zm47-44v17h35v10h-35v17h35v10h-46V82h46v10h-35zm-174 18v26h8c5 0 8-1 12-4 3-2 5-5 5-9s-2-7-5-9c-4-3-9-4-14-4h-6zm0-18v8h7c2 0 4-1 5-2 1 0 2-1 2-2 0-2-1-2-2-3-2-1-4-1-6-1h-6zm74 18v26h8c5 0 9-1 12-4 3-2 5-5 5-9s-2-7-5-9c-4-3-9-4-14-4h-6zm0-18v8h7c2 0 4-1 5-2 1 0 2-1 2-2 0-2-1-2-2-3-2-1-4-1-6-1h-6zm25-92c69 0 131 28 176 73s73 107 73 176-28 131-73 176c-45 46-107 73-176 73s-131-27-176-73C28 380 0 318 0 249S28 118 73 73 180 0 249 0zm0 14c130 0 235 105 235 235S379 484 249 484 14 379 14 249 119 14 249 14z" fill-rule="evenodd"/></symbol><symbol id="icon-marker" viewBox="0 0 512 512"><path fill="currentColor" d="M256 0C156.748 0 76 80.748 76 180c0 33.534 9.289 66.26 26.869 94.652l142.885 230.257A15 15 0 0 0 258.499 512h.119a14.997 14.997 0 0 0 12.75-7.292L410.611 272.22C427.221 244.428 436 212.539 436 180 436 80.748 355.252 0 256 0zm128.866 256.818L258.272 468.186l-129.905-209.34C113.734 235.214 105.8 207.95 105.8 180c0-82.71 67.49-150.2 150.2-150.2S406.1 97.29 406.1 180c0 27.121-7.411 53.688-21.234 76.818z"/><path fill="currentColor" d="M256 90c-49.626 0-90 40.374-90 90 0 49.309 39.717 90 90 90 50.903 0 90-41.233 90-90 0-49.626-40.374-90-90-90zm0 150.2c-33.257 0-60.2-27.033-60.2-60.2 0-33.084 27.116-60.2 60.2-60.2s60.1 27.116 60.1 60.2c0 32.683-26.316 60.2-60.1 60.2z"/></symbol></svg>