<svg xmlns="http://www.w3.org/2000/svg"><symbol id="icon-arrow-btn" viewBox="130 130 280 252"><path fill="currentColor" d="M506.134 241.843l-.018-.019-104.504-104c-7.829-7.791-20.492-7.762-28.285.068-7.792 7.829-7.762 20.492.067 28.284L443.558 236H20c-11.046 0-20 8.954-20 20s8.954 20 20 20h423.557l-70.162 69.824c-7.829 7.792-7.859 20.455-.067 28.284 7.793 7.831 20.457 7.858 28.285.068l104.504-104 .018-.019c7.833-7.818 7.808-20.522-.001-28.314z"/></symbol><symbol id="icon-book" viewBox="51 51 410 410"><path fill="currentColor" d="M485.517 70.677h-15.89c-69.714-23.528-145.443-23.813-213.613-.04-67.409-23.773-146.543-23.488-213.642.04H0v388.414h512V70.677h-26.483zM228.235 414.952H47.669c52.128-22.904 112.743-22.47 180.566 0zm236.096-.882l1.766.883H282.483c71.503-22.952 132.414-23.835 181.848-.883zm0-326.621l1.766.883h1.766v307.2c-55.614-23.834-123.586-22.069-203.034 6.179V85.683c64.44-20.303 135.943-20.303 199.502 1.766zm-417.545 0c62.676-22.069 136.828-22.952 200.386-1.766v316.028a579.418 579.418 0 0 0-9.22-3.045c-70.021-23.909-133.516-25.794-188.58-4.362a209.538 209.538 0 0 0-5.235 2.11V88.332h1.766l.883-.883zm-29.131.883h8.828v326.621h-8.828V88.332zm476.69 353.103H17.655v-8.828h476.69v8.828zm-8.828-26.483V88.332h8.828v326.621h-8.828z"/><path fill="currentColor" d="M123.586 150.125h79.448c5.297 0 8.828-3.531 8.828-8.828 0-5.297-3.531-8.828-8.828-8.828h-79.448c-5.297 0-8.828 3.531-8.828 8.828.001 5.297 3.532 8.828 8.828 8.828zm-35.31 44.138h114.759c5.297 0 8.828-3.531 8.828-8.828 0-5.297-3.531-8.828-8.828-8.828H88.276c-5.297 0-8.828 3.531-8.828 8.828 0 5.297 3.531 8.828 8.828 8.828zm0 44.138h79.448c5.297 0 8.828-3.531 8.828-8.828 0-5.297-3.531-8.828-8.828-8.828H88.276c-5.297 0-8.828 3.531-8.828 8.828 0 5.297 3.531 8.828 8.828 8.828zm114.758 26.483h-79.448c-5.297 0-8.828 3.531-8.828 8.828 0 5.297 3.531 8.828 8.828 8.828h79.448c5.297 0 8.828-3.531 8.828-8.828 0-5.297-3.531-8.828-8.828-8.828zM88.276 326.677h114.759c5.297 0 8.828-3.531 8.828-8.828s-3.531-8.828-8.828-8.828H88.276c-5.297 0-8.828 3.531-8.828 8.828s3.531 8.828 8.828 8.828zm220.69-132.414h79.448c5.297 0 8.828-3.531 8.828-8.828 0-5.297-3.531-8.828-8.828-8.828h-79.448c-5.297 0-8.828 3.531-8.828 8.828 0 5.297 3.531 8.828 8.828 8.828zm0-44.138h123.586c5.297 0 8.828-3.531 8.828-8.828 0-5.297-3.531-8.828-8.828-8.828H308.966c-5.297 0-8.828 3.531-8.828 8.828 0 5.297 3.531 8.828 8.828 8.828zm123.586 158.896h-88.276c-5.297 0-8.828 3.531-8.828 8.828s3.531 8.828 8.828 8.828h88.276c5.297 0 8.828-3.531 8.828-8.828s-3.532-8.828-8.828-8.828zm-123.586-26.482h79.448c5.297 0 8.828-3.531 8.828-8.828 0-5.297-3.531-8.828-8.828-8.828h-79.448c-5.297 0-8.828 3.531-8.828 8.828 0 5.297 3.531 8.828 8.828 8.828zm0-44.138h123.586c5.297 0 8.828-3.531 8.828-8.828 0-5.297-3.531-8.828-8.828-8.828H308.966c-5.297 0-8.828 3.531-8.828 8.828 0 5.297 3.531 8.828 8.828 8.828z"/></symbol><symbol id="icon-calendar" viewBox="-27 -17 532 532.001"><path fill="currentColor" d="M477.344 184.766v-76.934c-.035-30.25-24.551-54.766-54.801-54.8h-14.43v-8.653C407.988 19.829 388.051 0 363.503 0s-44.48 19.828-44.612 44.379v8.652H157.719V44.38C157.594 19.829 137.656 0 113.109 0S68.63 19.828 68.496 44.379v8.652H54.063C23.816 53.066-.7 77.582-.734 107.832v336.117c.035 30.25 24.55 54.766 54.797 54.801h368.48c30.25-.035 54.766-24.55 54.8-54.8V192.675a12.35 12.35 0 0 0 0-7.91zM363.504 24.715c10.851.015 19.644 8.805 19.656 19.664v26.273c-.082 10.793-8.863 19.5-19.664 19.5-10.797 0-19.574-8.707-19.66-19.5V44.38c.012-10.86 8.809-19.652 19.668-19.664zM93.44 44.379c.086-10.8 8.864-19.508 19.66-19.508 10.801 0 19.575 8.707 19.665 19.508v26.273c-.09 10.793-8.864 19.5-19.664 19.5-10.797 0-19.575-8.707-19.66-19.5zM54.063 77.98h15.042c3.586 21.508 22.192 37.274 43.997 37.274 21.808 0 40.414-15.766 44-37.274h162.402c3.586 21.508 22.195 37.274 44 37.274S403.918 99.488 407.5 77.98h15.043c16.48.02 29.832 13.372 29.852 29.852v68.41H24.215v-68.406C24.23 91.356 37.59 78 54.062 77.98zm368.48 395.82H54.063c-16.473-.019-29.829-13.37-29.848-29.85V201.19h428.18V443.95c-.02 16.48-13.372 29.832-29.852 29.852zm0 0"/><path fill="currentColor" d="M300.367 280.152l-81.898 79.965-41.578-40.597c-4.899-4.786-12.735-4.73-17.563.12-4.828 4.856-4.844 12.692-.039 17.563l.172.164 50.297 49.113c4.844 4.73 12.582 4.73 17.426 0l90.617-88.468c4.887-4.805 4.984-12.657.219-17.582-4.774-4.922-12.622-5.07-17.582-.34l-.07.066zm0 0"/></symbol><symbol id="icon-clock" viewBox="0 0 30 30"><path fill="currentColor" d="M15 4a1 1 0 0 0-1 1v9H9a1 1 0 1 0 0 2h6a1 1 0 0 0 1-1V5a1 1 0 0 0-1-1zm0-4C6.716 0 0 6.716 0 15s6.716 15 15 15 15-6.716 15-15S23.284 0 15 0zm0 28C7.82 28 2 22.18 2 15S7.82 2 15 2s13 5.82 13 13-5.82 13-13 13z"/></symbol><symbol id="icon-five" viewBox="0 0 512 512"><path fill="currentColor" d="M119.465 102.398c28.277 0 51.203-22.921 51.203-51.199C170.668 22.922 147.742 0 119.465 0c-28.274 0-51.2 22.922-51.2 51.2.028 28.265 22.938 51.171 51.2 51.198zm0-85.332c18.851 0 34.137 15.282 34.137 34.133 0 18.852-15.286 34.133-34.137 34.133-18.848 0-34.133-15.281-34.133-34.133 0-18.851 15.285-34.133 34.133-34.133zM153.602 512c14.136 0 25.597-11.46 25.597-25.602v-192c0-7.066-5.73-12.796-12.8-12.796H72.534c-7.07 0-12.8 5.73-12.8 12.796v192c0 14.141 11.46 25.602 25.597 25.602 14.14 0 25.602-11.46 25.602-25.602V342.29a9.232 9.232 0 0 1 7.738-9.488 8.616 8.616 0 0 1 6.523 2.234 8.624 8.624 0 0 1 2.805 6.297v145.066C128 500.54 139.46 512 153.602 512zm-34.137-196.266c-.73 0-1.465 0-2.207.094-13.45 1.485-23.57 12.934-23.39 26.461V486.4a8.534 8.534 0 1 1-17.067 0V298.667h85.332v187.73a8.533 8.533 0 1 1-17.067 0V341.332a24.957 24.957 0 0 0-7.449-17.988 25.284 25.284 0 0 0-18.152-7.61zm273.07-213.336c28.274 0 51.2-22.921 51.2-51.199 0-28.277-22.926-51.199-51.2-51.199-28.277 0-51.203 22.922-51.203 51.2.031 28.265 22.938 51.171 51.203 51.198zm0-85.332c18.848 0 34.133 15.282 34.133 34.133 0 18.852-15.285 34.133-34.133 34.133-18.851 0-34.137-15.281-34.137-34.133 0-18.851 15.286-34.133 34.137-34.133zm0 0"/><path fill="currentColor" d="M452.266 110.934h-23.38a25.674 25.674 0 0 0-21.898 12.39l-13.343 22.239-13.254-22.067a21.067 21.067 0 0 0-1.989-2.867c-.187-.23-.382-.473-.605-.703a17.969 17.969 0 0 0-1.348-1.485 28.906 28.906 0 0 0-2.742-2.379 7.965 7.965 0 0 0-.555-.425 15.618 15.618 0 0 0-3.59-2.082 21.349 21.349 0 0 0-4.078-1.57 16.69 16.69 0 0 0-4.02-.856 20.627 20.627 0 0 0-3.066-.195h-42.171l-36.332-94.575c-.094-.222-.239-.418-.336-.64 0-.086 0-.172-.051-.258-.238-.563-.528-1.133-1.004-2.055a8.02 8.02 0 0 0-.691-1.136c-.208-.34-.41-.665-.633-.989-.223-.324-.446-.683-.77-1.16l-.722-.937c-.239-.301-.489-.59-.754-.856l-1.621-1.621c-.176-.187-.731-.648-.922-.852a14.845 14.845 0 0 0-1.63-1.203 25.908 25.908 0 0 0-1.8-1.086 13.09 13.09 0 0 0-2.723-1.398l-.281-.164c-.832-.41-1.71-.719-2.617-.91a12.96 12.96 0 0 0-3.024-.692 23.234 23.234 0 0 0-2.5-.238c-.41 0-.851-.113-1.226-.121a20.492 20.492 0 0 0-4.121.254c-.64.086-1.266.242-1.906.379-.637.136-1.133.203-1.622.34a5.88 5.88 0 0 0-.62.222c-.165.043-.258.094-.41.145-.376.117-.77.16-1.145.308-.375.145-.563.305-.852.434-.7.262-1.375.582-2.023.957a8.324 8.324 0 0 0-1.188.68c-.297.18-.594.36-.851.554-.254.2-.391.243-.582.368a8.1 8.1 0 0 0-.73.53l-.915.692c-.309.239-.98.852-1.254 1.153l-1.289 1.285c-.152.156-.598.683-.742.855-.414.48-.793.988-1.137 1.52a32.37 32.37 0 0 0-1.16 1.867 13.5 13.5 0 0 0-1.29 2.484l-.144.29a9.814 9.814 0 0 0-.496 1.042l-36.34 94.532h-42.171c-.813-.02-1.625.02-2.434.109a19.699 19.699 0 0 0-4.652.93c-1.176.308-2.32.738-3.41 1.28a18.414 18.414 0 0 0-4.27 2.372c-.184.133-.363.27-.535.418a27.69 27.69 0 0 0-2.774 2.418c-.488.469-.941.965-1.367 1.492-.187.203-.36.402-.52.606a15.252 15.252 0 0 0-1.648 2.312c-.289.418-.554.852-.8 1.297L118.39 145.5l-13.328-22.184a25.738 25.738 0 0 0-21.981-12.382H59.734C26.758 110.973.04 137.69 0 170.668v111.957c0 14.137 11.46 25.598 25.602 25.598 1.425 0 2.855-.118 4.265-.348 12.516-2.469 21.488-13.52 21.332-26.273v-98.137a4.266 4.266 0 0 1 4.266-4.266c2.36 0 4.27 1.91 4.27 4.266v68.27c0 7.066 5.73 12.8 12.8 12.8h89.598c9.426 0 17.066-7.644 17.066-17.07v-68.266c0-9.426 7.64-17.066 17.067-17.066h17.066a25.514 25.514 0 0 0 23.895-16.39L256 97l18.773 48.773a25.495 25.495 0 0 0 23.895 16.36h17.066c9.426 0 17.067 7.64 17.067 17.066v68.266c0 9.426 7.64 17.07 17.066 17.07h89.598c7.07 0 12.8-5.734 12.8-12.8v-68.27a4.267 4.267 0 0 1 4.27-4.266 4.266 4.266 0 0 1 4.266 4.266v98.137c-.164 12.761 8.808 23.82 21.332 26.289 1.41.23 2.84.347 4.265.351 14.141 0 25.602-11.46 25.602-25.601V170.668c-.04-32.977-26.758-59.695-59.734-59.734zm-230.93 28.644a8.528 8.528 0 0 1-8.004 5.488h-17.066c-18.852 0-34.133 15.282-34.133 34.133v68.266H76.8v-64c0-11.781-9.551-21.332-21.336-21.332-11.781 0-21.332 9.55-21.332 21.332v98.137a9.39 9.39 0 0 1-7.047 9.386 8.528 8.528 0 0 1-6.953-1.855 8.517 8.517 0 0 1-3.067-6.508V170.668c.028-23.555 19.114-42.64 42.668-42.668h23.348c2.992 0 5.77 1.57 7.313 4.137l20.648 34.39a8.536 8.536 0 0 0 14.637 0l19.949-33.28.402-.688c.145-.2.606-.856.735-1.086.308-.293.593-.61.851-.946.32-.304.656-.59 1.008-.855a14.32 14.32 0 0 0 1.484-.852 4.26 4.26 0 0 1 .965-.375c.29-.078 1.297-.28 1.578-.386.282-.102.743-.059.95-.059h48.043a8.536 8.536 0 0 0 7.96-5.477l28.083-73.132 9.164 23.832zm273.598 143.047a8.544 8.544 0 0 1-3.051 6.531 8.525 8.525 0 0 1-6.969 1.864 9.382 9.382 0 0 1-7.047-9.418v-98.137c0-11.781-9.55-21.332-21.332-21.332-11.785 0-21.336 9.55-21.336 21.332v64h-85.332v-68.266c0-18.851-15.281-34.133-34.133-34.133h-17.066a8.531 8.531 0 0 1-7.996-5.453L248.004 28.68a8.663 8.663 0 0 1 .164-6.434c.047-.094.09-.191.125-.289a8.88 8.88 0 0 1 1.59-2.297l.62-.535a8.17 8.17 0 0 1 2.048-1.324l.3-.121c.211-.047.419-.11.622-.188a8.998 8.998 0 0 1 2.136-.34 5.725 5.725 0 0 1 1.098 0 8.69 8.69 0 0 1 2.512.57c.136.071.277.13.426.18a8.81 8.81 0 0 1 2.304 1.606l.434.484a8.487 8.487 0 0 1 1.605 2.492l38.399 100.012a8.533 8.533 0 0 0 7.968 5.504h48.395c.203 0 1.137.18 1.348.195.214.02.57.188.855.266.332.086.656.21.961.375.215.101.762.375.984.469.22.093.29.23.442.332.367.285.742.61 1.05.855.192.266.403.516.622.758.23.316.48.633.574.742l.598 1 20.128 33.543a8.536 8.536 0 0 0 7.317 4.145c3 0 5.777-1.575 7.316-4.145l20.668-34.422a8.546 8.546 0 0 1 7.274-4.113h23.379c23.554.027 42.64 19.113 42.668 42.668zm0 0"/><path fill="currentColor" d="M426.668 512c14.137 0 25.598-11.46 25.598-25.602v-192c0-7.066-5.73-12.796-12.801-12.796h-93.863c-7.07 0-12.801 5.73-12.801 12.796v192c0 14.141 11.46 25.602 25.597 25.602C372.54 512 384 500.54 384 486.398V341.332c-.004-2.3.945-4.5 2.621-6.074a8.027 8.027 0 0 1 6.7-2.457 9.23 9.23 0 0 1 7.745 9.488V486.4c0 14.14 11.461 25.601 25.602 25.601zm-31.906-196.172c-.742-.094-1.477-.094-2.227-.094-14.105.079-25.523 11.493-25.601 25.598v145.066a8.534 8.534 0 1 1-17.067 0v-187.73H435.2v187.73a8.533 8.533 0 1 1-17.066 0V342.29c.18-13.52-9.934-24.969-23.371-26.46zm0 0"/></symbol><symbol id="icon-happy" viewBox="0 0 44 44"><path fill="currentColor" d="M22 0C9.869 0 0 9.869 0 22s9.869 22 22 22 22-9.869 22-22S34.131 0 22 0zm0 42C10.972 42 2 33.028 2 22S10.972 2 22 2s20 8.972 20 20-8.972 20-20 20z"/><path fill="currentColor" d="M33 24a1 1 0 0 0-1 1c0 5.514-4.486 10-10 10s-10-4.486-10-10a1 1 0 0 0-2 0c0 6.617 5.383 12 12 12s12-5.383 12-12a1 1 0 0 0-1-1zM13 14c1.654 0 3 1.346 3 3a1 1 0 0 0 2 0c0-2.757-2.243-5-5-5s-5 2.243-5 5a1 1 0 0 0 2 0c0-1.654 1.346-3 3-3zm18-2c-2.757 0-5 2.243-5 5a1 1 0 0 0 2 0c0-1.654 1.346-3 3-3s3 1.346 3 3a1 1 0 0 0 2 0c0-2.757-2.243-5-5-5z"/></symbol><symbol id="icon-logo" viewBox="0 0 498 498"><path fill="currentColor" d="M149 314c-5-1-9-3-12-6-4-3-6-7-6-11 0-5 2-9 5-12h1c3-3 7-4 12-4 4 0 8 1 12 4 1 2 3 4 4 6l1 3-9 4-2-3c0-1-1-2-1-2-2-2-3-2-5-2s-4 0-6 2c-1 1-1 2-1 4 0 1 0 2 1 3 2 2 5 3 7 4 5 2 10 4 15 8 4 4 6 9 6 15s-2 10-6 14c-5 4-10 6-16 6s-12-2-16-6c-4-3-6-6-7-11v-3l9-3 1 4c0 2 2 4 3 6 3 2 6 3 10 3 3 0 6-1 9-3 2-2 3-4 3-7 0-4-1-6-3-8-3-2-6-4-9-5zm47-22v54h-10v-54h-17v-10h44v10h-17zm58-10h10v45c0 6-3 10-7 14-5 4-11 6-17 6-7 0-13-2-18-6-5-5-7-10-7-16v-43h10v43c0 3 1 6 4 8 3 3 7 4 11 4 3 0 7-1 10-4 3-2 4-5 4-8v-43zm27 0c8 0 17 2 24 9 7 6 11 14 11 23 0 10-4 17-11 24-7 6-16 8-24 8h-11v-64h11zm58 39l-26-39h12l19 28 18-28h13l-26 39v25h-10v-25zm-58-29v44c6 0 12-2 17-6s8-9 8-16-3-12-8-16-11-6-17-6zm-64 90c1-5 4-11 9-15 6-7 13-10 22-10s17 3 23 10c6 6 10 14 10 23s-4 17-10 23c-6 7-14 10-23 10s-16-3-22-10c-7-6-10-14-10-23v-4c0 3-2 7-5 10-2 2-4 3-6 4l14 22h-12l-12-20h-6v20h-10v-64h19c5 0 9 3 13 6 4 5 6 10 6 16v2zm-51 27v-19h10v23l-1 1c-6 6-13 9-21 9-9 0-17-3-23-10-6-6-10-14-10-23s4-17 10-23c6-7 14-10 23-10 8 0 15 3 21 9l3 2-7 7-3-2c-4-4-9-6-14-6-7 0-12 2-16 7-5 4-7 10-7 16s2 12 7 16c4 5 9 7 16 7 4 0 9-1 12-4zm151-51h10v45c-1 5-3 10-6 13-5 5-10 7-16 7s-11-2-15-7c-4-4-6-9-6-15v-43h9v43c0 3 2 6 4 8 2 3 5 4 8 4 4 0 6-1 9-4 2-2 3-5 3-8v-43zm24 44v20h-10v-64h19c5 0 9 3 12 6 5 5 7 10 7 16s-2 11-7 16c-4 4-9 6-15 6h-6zm-152-34v24h6c4 0 6-1 9-3 2-3 3-6 3-9s-1-6-3-9c-3-2-5-3-9-3h-6zm59-1c-6 0-11 2-16 7-4 4-6 10-6 16s2 12 6 16c5 5 10 7 16 7 7 0 12-2 16-7 5-4 7-10 7-16s-2-12-7-16c-4-5-9-7-16-7zm93 1v24h6c3 0 6-1 9-3 2-3 3-6 3-9s-1-6-3-9c-3-2-6-3-9-3h-6zm-91-184c-10 10-20 19-30 28l-1 1-1-1c-4-1-7-4-10-6-1-1-2-3-3-3l-1 1c-6 5-13 10-19 15 4-1 7-2 10-3 3-2 6-4 8-7l2-1 1 1c3 3 6 5 9 7s7 4 10 5c1-1 3-2 5-4 2-1 4-3 7-6l1-1 1 1c3 3 6 5 9 8l2 2c1-2 3-4 4-6 3-4 6-9 10-13l1-2 1 1c4 3 7 6 11 9 2 3 5 5 7 7 1 0 1 0 1-1 1-1 2-2 4-3h2c3 2 6 3 9 5 3 1 5 2 9 3 1 0 1 1 2 1s3 1 5 1c-1-1-2-1-3-2-3-3-7-6-10-9-7-2-13-3-18-8-5-4-9-8-14-12-4-4-9-9-15-13-1 1-3 3-6 5zm-12 33c-1 2-3 3-5 5-2 1-4 3-6 5l-2 1-1-1-12-6c-2-2-5-4-7-6-3 2-5 4-7 6l-1 1c-4 0-7 1-10 2l-9 3-15 4 11-10c9-8 18-15 26-22 1 0 2-1 3-2l2-1 2 1c2 1 3 3 5 4 2 2 4 4 6 5 10-8 19-17 29-26 2-2 5-4 7-6l2-2 2 1c6 5 12 10 17 15 4 4 9 8 13 12s11 5 16 6h1l1 1c4 3 7 6 10 9 4 3 7 6 10 9l11 9-14-3c-3 0-5-1-8-2-2-1-4-1-6-2h-1c-4-2-7-3-10-4s-5-2-8-4c0 0 0 1-1 1 0 1-1 1-1 2l-2 5-4-4-9-9c-2-2-5-4-7-6-3 3-5 7-8 11-1 2-3 5-5 7l-2 3-3-2c-1-2-3-3-4-4l-6-6zm-5-29c-5 5-10 9-14 12l-1 2-2-2c-1-1-3-3-5-4l-6-6c-26 24-52 48-77 72l-2 1h246c-19-17-38-34-56-51l-6-6c-1-1-3-1-4-1-5-1-11-2-15-6-7-5-13-11-19-17-5-5-10-10-16-15-8 7-15 14-23 21zm-15 5c3-3 7-6 11-9 8-8 16-16 24-23l3-3 3 3c6 5 12 11 17 16 6 6 13 12 19 17 3 3 8 4 12 5h4l1 1h1c3 2 5 5 7 7 20 18 40 37 61 56l7 7H109l14-13c27-25 53-49 79-73l3-2 2 2c3 2 6 5 8 7 1 1 2 1 3 2zm-46-90c2 1 4 2 5 3 6 4 9 10 9 17s-3 13-9 17c-5 4-10 6-16 6h-22V82h17c5 0 9 1 13 3 3 3 5 6 5 11 0 2-1 5-2 7zm32-21v64h-11V82h11zm42 21c2 1 4 2 5 3 6 4 10 10 10 17s-4 13-10 17c-5 4-10 6-16 6h-22V82h17c5 0 9 1 13 3 3 3 6 6 6 11 0 2-2 5-3 7zm31 33h31v10h-42V82h11v54zm47-44v17h35v10h-35v17h35v10h-46V82h46v10h-35zm-174 18v26h8c5 0 8-1 12-4 3-2 5-5 5-9s-2-7-5-9c-4-3-9-4-14-4h-6zm0-18v8h7c2 0 4-1 5-2 1 0 2-1 2-2 0-2-1-2-2-3-2-1-4-1-6-1h-6zm74 18v26h8c5 0 9-1 12-4 3-2 5-5 5-9s-2-7-5-9c-4-3-9-4-14-4h-6zm0-18v8h7c2 0 4-1 5-2 1 0 2-1 2-2 0-2-1-2-2-3-2-1-4-1-6-1h-6zm25-92c69 0 131 28 176 73s73 107 73 176-28 131-73 176c-45 46-107 73-176 73s-131-27-176-73C28 380 0 318 0 249S28 118 73 73 180 0 249 0zm0 14c130 0 235 105 235 235S379 484 249 484 14 379 14 249 119 14 249 14z" fill-rule="evenodd"/></symbol><symbol id="icon-marker" viewBox="0 0 512 512"><path fill="currentColor" d="M256 0C156.748 0 76 80.748 76 180c0 33.534 9.289 66.26 26.869 94.652l142.885 230.257A15 15 0 0 0 258.499 512h.119a14.997 14.997 0 0 0 12.75-7.292L410.611 272.22C427.221 244.428 436 212.539 436 180 436 80.748 355.252 0 256 0zm128.866 256.818L258.272 468.186l-129.905-209.34C113.734 235.214 105.8 207.95 105.8 180c0-82.71 67.49-150.2 150.2-150.2S406.1 97.29 406.1 180c0 27.121-7.411 53.688-21.234 76.818z"/><path fill="currentColor" d="M256 90c-49.626 0-90 40.374-90 90 0 49.309 39.717 90 90 90 50.903 0 90-41.233 90-90 0-49.626-40.374-90-90-90zm0 150.2c-33.257 0-60.2-27.033-60.2-60.2 0-33.084 27.116-60.2 60.2-60.2s60.1 27.116 60.1 60.2c0 32.683-26.316 60.2-60.1 60.2z"/></symbol><symbol id="icon-question" viewBox="0 0 512 512"><path fill="currentColor" d="M324.396 341.35h-.025a8.533 8.533 0 1 0 .009 17.067h.017a8.542 8.542 0 0 1 8.533 8.525 8.535 8.535 0 0 0 8.533 8.525h.009a8.534 8.534 0 0 0 8.525-8.542c-.03-14.123-11.479-25.559-25.601-25.575zm-102.521 34.134l17.067-.017a8.533 8.533 0 1 0-.009-17.067h-.009l-17.067.017a8.533 8.533 0 1 0 .009 17.067h.009zm3.354-35.451l16.042 5.821a8.535 8.535 0 0 0 11.344-9.508 8.533 8.533 0 0 0-5.519-6.533l-16.042-5.821a8.533 8.533 0 0 0-5.825 16.041zm24.485 49.63a8.533 8.533 0 0 0-8.405-1.475l-16.033 5.85a8.534 8.534 0 0 0 5.85 16.033l16.033-5.85a8.534 8.534 0 0 0 2.555-14.558zm176.953-31.28h-.009l-17.067.017a8.533 8.533 0 0 0 .008 17.066h.008l17.067-.017c4.713-.002 8.531-3.825 8.529-8.538s-3.823-8.53-8.536-8.528zm-22.109-12.154a8.583 8.583 0 0 0 2.925-.521l16.029-5.85a8.534 8.534 0 0 0-5.85-16.033l-16.029 5.85a8.536 8.536 0 0 0 2.925 16.554zm19.005 47.638l-16.042-5.825a8.533 8.533 0 0 0-5.825 16.042l16.042 5.825a8.534 8.534 0 0 0 5.825-16.042zM176.351 34.196c-31.847 1.523-56.885 27.787-56.885 59.67a8.533 8.533 0 0 0 17.066 0 42.537 42.537 0 0 1 15.771-33.125 43.13 43.13 0 0 1 36.171-8.571 42.371 42.371 0 0 1 32.421 32.421 42.747 42.747 0 0 1-35.575 51.508c-8.375 1.216-14.604 8.371-14.654 16.833v9.2c0 4.713 3.82 8.533 8.533 8.533s8.533-3.82 8.533-8.533l.004-9.142c31.556-4.554 53.975-33.087 50.933-64.825-3.041-31.736-30.471-55.492-62.318-53.969zm8.908 156.012a9.86 9.86 0 0 0-2.817-1.796 8.57 8.57 0 0 0-6.487 0 8.771 8.771 0 0 0-2.813 1.796 9.841 9.841 0 0 0-1.796 2.813 8.524 8.524 0 0 0-.679 3.246c.013.572.071 1.141.171 1.704.091.535.263 1.053.508 1.537a6.48 6.48 0 0 0 .771 1.538c.341.425.683.85 1.025 1.279a8.98 8.98 0 0 0 6.058 2.475 7.161 7.161 0 0 0 3.242-.683 9.933 9.933 0 0 0 2.817-1.792c.341-.429.683-.854 1.021-1.279.324-.476.583-.993.771-1.538a5.576 5.576 0 0 0 .513-1.537c.098-.563.155-1.133.171-1.704a8.528 8.528 0 0 0-.683-3.246 9.983 9.983 0 0 0-1.793-2.813z"/><path fill="currentColor" d="M375.467 204.8V34.133C375.445 15.291 360.176.022 341.333 0h-307.2C15.291.022.022 15.291 0 34.133V204.8c.022 18.842 15.291 34.112 34.133 34.133h8.533v51.183a17.06 17.06 0 0 0 29.133 12.067c.205-.201.397-.413.575-.638l51.137-62.612h217.821c18.844-.021 34.113-15.291 34.135-34.133zm-256 17.067c-.144 0-.263.075-.405.082a17.87 17.87 0 0 0-3.224.796 8.4 8.4 0 0 0-1.258.848 8.406 8.406 0 0 0-1.398 1.146c-.096.107-.23.152-.323.265l-53.125 65.042V230.4a8.533 8.533 0 0 0-8.533-8.533H34.133c-9.422-.009-17.057-7.645-17.067-17.067V34.133c.009-9.422 7.645-17.057 17.067-17.067h307.2c9.422.009 17.057 7.645 17.067 17.067V204.8c-.009 9.422-7.645 17.057-17.067 17.067H119.467z"/><path fill="currentColor" d="M477.867 273.067h-8.533v-51.183a17.067 17.067 0 0 0-29.134-12.067 6.814 6.814 0 0 0-.575.638l-51.137 62.612H170.667c-18.842.022-34.112 15.291-34.133 34.133v170.667c.022 18.842 15.291 34.112 34.133 34.133h307.2c18.842-.022 34.112-15.291 34.133-34.133V307.2c-.022-18.842-15.291-34.112-34.133-34.133zm17.066 204.8c-.009 9.422-7.645 17.057-17.067 17.067h-307.2c-9.422-.009-17.057-7.645-17.067-17.067V307.2c.009-9.422 7.645-17.057 17.067-17.067h221.867a8.43 8.43 0 0 0 3.459-.764c.253-.153.499-.318.735-.496a8.436 8.436 0 0 0 2.11-1.642c.089-.099.219-.132.304-.236l53.125-65.042V281.6a8.533 8.533 0 0 0 8.533 8.533h17.067c9.422.009 17.057 7.645 17.067 17.067v170.667z"/><path fill="currentColor" d="M331.45 307.625c-26.493-3.22-51.906 11.531-62.25 36.133-10.344 24.602-3.106 53.081 17.729 69.759a8.398 8.398 0 0 1 3.204 6.575v6.575a17.01 17.01 0 0 0 8.523 14.688l.01 10.921a25.683 25.683 0 0 0 10.654 20.737 25.377 25.377 0 0 0 14.929 4.842 26.683 26.683 0 0 0 8.4-1.371 25.96 25.96 0 0 0 17.229-25.092l-.008-10.034a17.008 17.008 0 0 0 8.529-14.691v-6.55a8.773 8.773 0 0 1 3.421-6.775 59.345 59.345 0 0 0 21.425-55.996c-4.456-26.158-25.477-46.336-51.795-49.721zm-4.163 152.658a8.665 8.665 0 0 1-7.975-1.108 8.565 8.565 0 0 1-3.579-6.917l-.009-8.525h17.084l.004 7.675a9.217 9.217 0 0 1-5.525 8.875zm23.813-60.22a25.754 25.754 0 0 0-9.767 20.054v6.521h-.009l-34.125.029v-6.575a25.381 25.381 0 0 0-9.612-19.904c-14.106-11.323-19.536-30.312-13.55-47.381 5.986-17.069 22.087-28.507 40.175-28.54 1.753 0 3.505.102 5.246.308 18.758 2.405 33.744 16.78 36.929 35.421a42.464 42.464 0 0 1-15.287 40.067z"/></symbol><symbol id="icon-tea-cup" viewBox="0 0 512 512"><path fill="currentColor" d="M456.828 441.379H348.929c27.389-10.951 48.357-26.522 64.359-45.36 65.428-9.791 94.74-63.816 94.74-113.537 0-35.246-19.627-64.674-45.028-69.82l.007-.8c0-4.414-1.766-8.828-5.297-12.359-2.648-3.531-7.945-5.297-12.359-5.297H39.283c-4.414 0-8.828 1.766-12.359 5.297-3.531 3.531-5.297 7.945-5.297 12.359.684 94.343 17.253 190.802 114.078 229.517H26.924c-12.359 0-22.952 10.593-22.952 22.952 0 10.593 7.062 18.538 20.303 21.186l111.228 8.828c4.414 0 5.297 1.766 6.179 3.531 4.414 8.828 13.241 14.124 22.952 14.124h146.538c9.71 0 18.538-5.297 21.186-14.124.883-1.766 2.648-3.531 6.179-3.531l120.938-8.828h.883c12.359-2.648 19.421-10.593 19.421-21.186 0-12.359-9.71-22.952-22.951-22.952zm32.662-158.896c0 34.428-15.89 75.917-60.028 90.924 26.483-43.255 31.779-96.221 33.545-142.124 15.007 5.296 26.483 26.483 26.483 51.2zm-141.242-22.952l26.483 26.483v58.262h-52.966v-58.262l26.483-26.483zM39.283 211.862H339.42v31.779l-32.662 32.662c-1.766 1.766-2.648 3.531-2.648 6.179v70.621c0 5.297 3.531 8.828 8.828 8.828h70.621c5.297 0 8.828-3.531 8.828-8.828v-70.621c0-2.648-.883-4.414-2.648-6.179l-32.662-32.662v-31.779h88.276c-.883 119.172-26.483 229.517-203.034 229.517S40.166 331.034 39.283 211.862zm420.193 256l-120.055 8.828c-8.828.883-16.772 5.297-20.303 13.241-1.766 2.648-4.414 4.414-7.062 4.414H164.634c-2.648 0-5.297-1.766-7.062-4.414-3.531-7.945-11.476-12.359-20.303-13.241l-111.228-8.828c-4.414-.883-4.414-2.648-4.414-3.531 0-2.648 2.648-5.297 5.297-5.297h431.669c2.648 0 5.297 2.648 5.297 5.297 0 .883 0 2.648-4.414 3.531zM227.31 73.269c-13.241 13.241-20.303 26.483-20.303 40.607s7.062 28.248 20.303 42.372c1.766 1.766 3.531 2.648 6.179 2.648 1.766 0 4.414-.883 6.179-2.648 3.531-3.531 3.531-8.828 0-12.359-9.71-10.593-15.007-20.303-15.007-30.014s5.297-19.421 15.007-28.248c13.241-12.359 20.303-26.483 20.303-40.607 0-15.007-7.062-29.131-20.303-42.372-3.531-3.531-8.828-3.531-12.359 0-3.531 3.531-3.531 8.828 0 12.359 9.71 10.593 15.007 20.303 15.007 30.014s-5.295 19.42-15.006 28.248zm105.931 0C320 86.51 312.938 99.752 312.938 113.876s7.062 28.248 20.303 42.372c1.766 1.766 3.531 2.648 6.179 2.648 1.766 0 4.414-.883 6.179-2.648 3.531-3.531 3.531-8.828 0-12.359-9.71-10.593-15.007-20.303-15.007-30.014s5.297-19.421 15.007-28.248c13.241-12.359 20.303-26.483 20.303-40.607 0-15.007-7.062-29.131-20.303-42.372-3.531-3.531-8.828-3.531-12.359 0-3.531 3.531-3.531 8.828 0 12.359 9.71 10.593 15.007 20.303 15.007 30.014s-5.295 19.42-15.006 28.248zm-194.207 0c-13.241 13.241-20.303 26.483-20.303 40.607s7.062 28.248 20.303 42.372c1.766 1.766 3.531 2.648 6.179 2.648 1.766 0 4.414-.883 6.179-2.648 3.531-3.531 3.531-8.828 0-12.359-9.71-10.593-15.007-20.303-15.007-30.014s5.297-19.421 15.007-28.248c13.241-12.359 20.303-26.483 20.303-40.607 0-15.007-7.062-29.131-20.303-42.372-3.531-3.531-8.828-3.531-12.359 0-3.531 3.531-3.531 8.828 0 12.359 9.71 10.593 15.007 20.303 15.007 30.014s-5.295 19.42-15.006 28.248z"/><path fill="currentColor" d="M191.117 397.241c-62.676-10.593-94.455-45.903-107.697-116.524-.883-4.414-6.179-7.945-10.593-7.062s-7.945 6.179-7.062 10.593c14.124 78.565 52.083 118.29 121.821 130.648h1.766c4.414 0 7.945-2.648 8.828-7.062.882-5.296-2.649-9.71-7.063-10.593z"/></symbol></svg>